<mxfile host="65bd71144e">
    <diagram id="-ZpwGrYmDu8mz7jTBinB" name="Page-1">
        <mxGraphModel dx="1935" dy="1688" grid="1" gridSize="10" guides="1" tooltips="1" connect="1" arrows="1" fold="1" page="1" pageScale="1" pageWidth="850" pageHeight="1100" math="0" shadow="0">
            <root>
                <mxCell id="0"/>
                <mxCell id="1" parent="0"/>
                <mxCell id="21" value="" style="group;movable=0;resizable=0;rotatable=0;deletable=0;editable=0;connectable=0;" vertex="1" connectable="0" parent="1">
                    <mxGeometry x="456" y="40" width="95" height="1130" as="geometry"/>
                </mxCell>
                <mxCell id="2" value="Authenticate" style="ellipse;whiteSpace=wrap;html=1;" vertex="1" parent="21">
                    <mxGeometry width="80" height="70" as="geometry"/>
                </mxCell>
                <mxCell id="3" value="Manage Product" style="ellipse;whiteSpace=wrap;html=1;" vertex="1" parent="21">
                    <mxGeometry y="100" width="80" height="70" as="geometry"/>
                </mxCell>
                <mxCell id="4" value="Feedback Proccessing" style="ellipse;whiteSpace=wrap;html=1;" vertex="1" parent="21">
                    <mxGeometry y="200" width="80" height="70" as="geometry"/>
                </mxCell>
                <mxCell id="7" value="Search Algorithm" style="ellipse;whiteSpace=wrap;html=1;" vertex="1" parent="21">
                    <mxGeometry x="2.5" y="300" width="90" height="80" as="geometry"/>
                </mxCell>
                <mxCell id="8" value="Chatbot Processeing" style="ellipse;whiteSpace=wrap;html=1;" vertex="1" parent="21">
                    <mxGeometry y="400" width="90" height="80" as="geometry"/>
                </mxCell>
                <mxCell id="9" value="Manage Cart" style="ellipse;whiteSpace=wrap;html=1;" vertex="1" parent="21">
                    <mxGeometry x="2.5" y="510" width="90" height="80" as="geometry"/>
                </mxCell>
                <mxCell id="12" value="Payment Processing" style="ellipse;whiteSpace=wrap;html=1;" vertex="1" parent="21">
                    <mxGeometry x="2.5" y="730" width="90" height="80" as="geometry"/>
                </mxCell>
                <mxCell id="11" value="Manage Order" style="ellipse;whiteSpace=wrap;html=1;" vertex="1" parent="21">
                    <mxGeometry x="2.5" y="610" width="90" height="80" as="geometry"/>
                </mxCell>
                <mxCell id="22" value="" style="group" vertex="1" connectable="0" parent="1">
                    <mxGeometry x="-93" y="40" width="152" height="165" as="geometry"/>
                </mxCell>
                <mxCell id="13" value="&lt;span style=&quot;color: rgb(220, 217, 212); font-family: Söhne, ui-sans-serif, system-ui, -apple-system, &amp;quot;Segoe UI&amp;quot;, Roboto, Ubuntu, Cantarell, &amp;quot;Noto Sans&amp;quot;, sans-serif, &amp;quot;Helvetica Neue&amp;quot;, Arial, &amp;quot;Apple Color Emoji&amp;quot;, &amp;quot;Segoe UI Emoji&amp;quot;, &amp;quot;Segoe UI Symbol&amp;quot;, &amp;quot;Noto Color Emoji&amp;quot;; font-size: 16px; font-weight: 600; text-align: left; background-color: rgb(25, 27, 28);&quot;&gt;Administrator&lt;/span&gt;" style="rounded=0;whiteSpace=wrap;html=1;" vertex="1" parent="22">
                    <mxGeometry x="-1.33" y="130.0004255319149" width="150" height="21.063829787234045" as="geometry"/>
                </mxCell>
                <mxCell id="87" value="" style="group" vertex="1" connectable="0" parent="22">
                    <mxGeometry width="147.33333333333334" height="30" as="geometry"/>
                </mxCell>
                <mxCell id="88" value="" style="endArrow=none;html=1;" edge="1" parent="87">
                    <mxGeometry width="50" height="50" relative="1" as="geometry">
                        <mxPoint as="sourcePoint"/>
                        <mxPoint x="147.33333333333334" as="targetPoint"/>
                    </mxGeometry>
                </mxCell>
                <mxCell id="89" value="&lt;span style=&quot;&quot;&gt;Feedback Database&lt;/span&gt;" style="text;html=1;align=center;verticalAlign=middle;resizable=0;points=[];autosize=1;strokeColor=none;fillColor=none;" vertex="1" parent="87">
                    <mxGeometry x="10.003333333333336" width="130" height="30" as="geometry"/>
                </mxCell>
                <mxCell id="90" value="" style="endArrow=none;html=1;" edge="1" parent="87">
                    <mxGeometry width="50" height="50" relative="1" as="geometry">
                        <mxPoint y="30" as="sourcePoint"/>
                        <mxPoint x="147.33333333333334" y="30" as="targetPoint"/>
                    </mxGeometry>
                </mxCell>
                <mxCell id="37" value="&lt;span style=&quot;color: rgb(220, 217, 212); font-family: Söhne, ui-sans-serif, system-ui, -apple-system, &amp;quot;Segoe UI&amp;quot;, Roboto, Ubuntu, Cantarell, &amp;quot;Noto Sans&amp;quot;, sans-serif, &amp;quot;Helvetica Neue&amp;quot;, Arial, &amp;quot;Apple Color Emoji&amp;quot;, &amp;quot;Segoe UI Emoji&amp;quot;, &amp;quot;Segoe UI Symbol&amp;quot;, &amp;quot;Noto Color Emoji&amp;quot;; font-size: 16px; font-weight: 600; text-align: left; background-color: rgb(25, 27, 28);&quot;&gt;User Registration Form&lt;/span&gt;" style="rounded=0;whiteSpace=wrap;html=1;" vertex="1" parent="22">
                    <mxGeometry y="60" width="143" height="40" as="geometry"/>
                </mxCell>
                <mxCell id="44" style="edgeStyle=none;html=1;exitX=1;exitY=0.5;exitDx=0;exitDy=0;entryX=0;entryY=0.5;entryDx=0;entryDy=0;fontSize=8;" edge="1" parent="1" source="15" target="4">
                    <mxGeometry relative="1" as="geometry"/>
                </mxCell>
                <mxCell id="45" style="edgeStyle=none;html=1;exitX=1;exitY=0.5;exitDx=0;exitDy=0;entryX=0;entryY=0.5;entryDx=0;entryDy=0;fontSize=8;" edge="1" parent="1" source="15" target="7">
                    <mxGeometry relative="1" as="geometry"/>
                </mxCell>
                <mxCell id="46" style="edgeStyle=none;html=1;exitX=1;exitY=0.5;exitDx=0;exitDy=0;fontSize=8;" edge="1" parent="1" source="15" target="8">
                    <mxGeometry relative="1" as="geometry"/>
                </mxCell>
                <mxCell id="47" style="edgeStyle=none;html=1;exitX=1;exitY=0.5;exitDx=0;exitDy=0;fontSize=8;" edge="1" parent="1" source="15" target="9">
                    <mxGeometry relative="1" as="geometry"/>
                </mxCell>
                <mxCell id="49" style="edgeStyle=none;html=1;exitX=1;exitY=0.5;exitDx=0;exitDy=0;entryX=0;entryY=0.5;entryDx=0;entryDy=0;fontSize=8;" edge="1" parent="1" source="15" target="11">
                    <mxGeometry relative="1" as="geometry"/>
                </mxCell>
                <mxCell id="50" style="edgeStyle=none;html=1;exitX=1;exitY=0.5;exitDx=0;exitDy=0;entryX=0;entryY=0.5;entryDx=0;entryDy=0;fontSize=8;" edge="1" parent="1" source="15">
                    <mxGeometry relative="1" as="geometry">
                        <mxPoint x="458.5" y="810" as="targetPoint"/>
                    </mxGeometry>
                </mxCell>
                <mxCell id="15" value="&lt;span style=&quot;color: rgb(220, 217, 212); font-family: Söhne, ui-sans-serif, system-ui, -apple-system, &amp;quot;Segoe UI&amp;quot;, Roboto, Ubuntu, Cantarell, &amp;quot;Noto Sans&amp;quot;, sans-serif, &amp;quot;Helvetica Neue&amp;quot;, Arial, &amp;quot;Apple Color Emoji&amp;quot;, &amp;quot;Segoe UI Emoji&amp;quot;, &amp;quot;Segoe UI Symbol&amp;quot;, &amp;quot;Noto Color Emoji&amp;quot;; font-size: 16px; font-weight: 600; text-align: left; background-color: rgb(25, 27, 28);&quot;&gt;Customer&lt;/span&gt;" style="rounded=0;whiteSpace=wrap;html=1;" vertex="1" parent="1">
                    <mxGeometry x="-80" y="510.00382978723405" width="150" height="21.063829787234045" as="geometry"/>
                </mxCell>
                <mxCell id="160" style="edgeStyle=none;html=1;exitX=1;exitY=0.5;exitDx=0;exitDy=0;entryX=0.006;entryY=0.657;entryDx=0;entryDy=0;entryPerimeter=0;fontSize=8;fontColor=#FFFFFF;" edge="1" parent="1" source="6" target="139">
                    <mxGeometry relative="1" as="geometry"/>
                </mxCell>
                <mxCell id="6" value="Recomendation Engine" style="ellipse;whiteSpace=wrap;html=1;" vertex="1" parent="1">
                    <mxGeometry x="456" y="-50" width="90" height="80" as="geometry"/>
                </mxCell>
                <mxCell id="51" value="Feedback and rating" style="text;html=1;strokeColor=none;fillColor=none;align=center;verticalAlign=middle;whiteSpace=wrap;rounded=0;fontSize=8;rotation=-30;" vertex="1" parent="1">
                    <mxGeometry x="95" y="450" width="60" height="30" as="geometry"/>
                </mxCell>
                <mxCell id="53" value="Search Queries" style="text;html=1;strokeColor=none;fillColor=none;align=center;verticalAlign=middle;whiteSpace=wrap;rounded=0;fontSize=8;rotation=-15;" vertex="1" parent="1">
                    <mxGeometry x="280" y="400" width="60" height="30" as="geometry"/>
                </mxCell>
                <mxCell id="54" value="Queries" style="text;html=1;strokeColor=none;fillColor=none;align=center;verticalAlign=middle;whiteSpace=wrap;rounded=0;fontSize=8;rotation=0;" vertex="1" parent="1">
                    <mxGeometry x="360" y="460" width="60" height="30" as="geometry"/>
                </mxCell>
                <mxCell id="55" value="Quantity Adjustment" style="text;html=1;strokeColor=none;fillColor=none;align=center;verticalAlign=middle;whiteSpace=wrap;rounded=0;fontSize=8;rotation=0;" vertex="1" parent="1">
                    <mxGeometry x="190" y="520" width="60" height="30" as="geometry"/>
                </mxCell>
                <mxCell id="56" value="Order Cancellation requests,Tracking Inquiries" style="text;html=1;strokeColor=none;fillColor=none;align=center;verticalAlign=middle;whiteSpace=wrap;rounded=0;fontSize=8;rotation=15;" vertex="1" parent="1">
                    <mxGeometry x="270" y="600" width="120" height="30" as="geometry"/>
                </mxCell>
                <mxCell id="57" value="Selection of payment mathods,Payment details," style="text;html=1;strokeColor=none;fillColor=none;align=center;verticalAlign=middle;whiteSpace=wrap;rounded=0;fontSize=8;rotation=30;" vertex="1" parent="1">
                    <mxGeometry x="230" y="650" width="120" height="30" as="geometry"/>
                </mxCell>
                <mxCell id="58" value="" style="group;" vertex="1" connectable="0" parent="1">
                    <mxGeometry x="-90" y="290" width="130" height="30" as="geometry"/>
                </mxCell>
                <mxCell id="59" value="" style="endArrow=none;html=1;" edge="1" parent="58">
                    <mxGeometry width="50" height="50" relative="1" as="geometry">
                        <mxPoint as="sourcePoint"/>
                        <mxPoint x="130" as="targetPoint"/>
                    </mxGeometry>
                </mxCell>
                <mxCell id="60" value="Product Database" style="text;html=1;align=center;verticalAlign=middle;resizable=0;points=[];autosize=1;strokeColor=none;fillColor=none;" vertex="1" parent="58">
                    <mxGeometry x="5" width="120" height="30" as="geometry"/>
                </mxCell>
                <mxCell id="61" value="" style="endArrow=none;html=1;" edge="1" parent="58">
                    <mxGeometry width="50" height="50" relative="1" as="geometry">
                        <mxPoint y="30" as="sourcePoint"/>
                        <mxPoint x="130" y="30" as="targetPoint"/>
                    </mxGeometry>
                </mxCell>
                <mxCell id="62" value="" style="endArrow=classic;html=1;fontSize=8;entryX=-0.014;entryY=0.389;entryDx=0;entryDy=0;entryPerimeter=0;fillColor=#60a917;strokeColor=#2D7600;" edge="1" parent="1" target="9">
                    <mxGeometry width="50" height="50" relative="1" as="geometry">
                        <mxPoint x="40" y="300" as="sourcePoint"/>
                        <mxPoint x="90" y="250" as="targetPoint"/>
                    </mxGeometry>
                </mxCell>
                <mxCell id="63" value="Product name ,Description,Price,image" style="text;html=1;strokeColor=none;fillColor=none;align=center;verticalAlign=middle;whiteSpace=wrap;rounded=0;fontSize=8;rotation=30;" vertex="1" parent="1">
                    <mxGeometry x="95" y="340" width="90" height="30" as="geometry"/>
                </mxCell>
                <mxCell id="68" style="edgeStyle=none;html=1;exitX=1;exitY=0.5;exitDx=0;exitDy=0;entryX=0;entryY=0.5;entryDx=0;entryDy=0;fontSize=8;fillColor=#008a00;strokeColor=#005700;" edge="1" parent="1" source="66" target="12">
                    <mxGeometry relative="1" as="geometry"/>
                </mxCell>
                <mxCell id="66" value="&lt;span style=&quot;color: rgb(220, 217, 212); font-family: Söhne, ui-sans-serif, system-ui, -apple-system, &amp;quot;Segoe UI&amp;quot;, Roboto, Ubuntu, Cantarell, &amp;quot;Noto Sans&amp;quot;, sans-serif, &amp;quot;Helvetica Neue&amp;quot;, Arial, &amp;quot;Apple Color Emoji&amp;quot;, &amp;quot;Segoe UI Emoji&amp;quot;, &amp;quot;Segoe UI Symbol&amp;quot;, &amp;quot;Noto Color Emoji&amp;quot;; font-size: 16px; font-weight: 600; text-align: left; background-color: rgb(25, 27, 28);&quot;&gt;Payment Gateway&lt;/span&gt;" style="rounded=0;whiteSpace=wrap;html=1;container=1;" vertex="1" parent="1">
                    <mxGeometry x="-80" y="600" width="150" height="30" as="geometry"/>
                </mxCell>
                <mxCell id="69" value="Payment Confirmation" style="text;html=1;strokeColor=none;fillColor=none;align=center;verticalAlign=middle;whiteSpace=wrap;rounded=0;fontSize=8;" vertex="1" parent="1">
                    <mxGeometry x="140" y="640" width="60" height="30" as="geometry"/>
                </mxCell>
                <mxCell id="76" value="" style="group;align=center;fontColor=#ffffff;noLabel=1;fillColor=none;strokeColor=#2D7600;" vertex="1" connectable="0" parent="1">
                    <mxGeometry x="-70" y="760" width="130" height="30" as="geometry"/>
                </mxCell>
                <mxCell id="73" value="" style="endArrow=none;html=1;fillColor=#1ba1e2;strokeColor=#006EAF;" edge="1" parent="76">
                    <mxGeometry width="50" height="50" relative="1" as="geometry">
                        <mxPoint as="sourcePoint"/>
                        <mxPoint x="130" as="targetPoint"/>
                    </mxGeometry>
                </mxCell>
                <mxCell id="74" value="&lt;span style=&quot;&quot;&gt;Order Database&lt;/span&gt;" style="text;html=1;align=center;verticalAlign=middle;resizable=0;points=[];autosize=1;" vertex="1" parent="76">
                    <mxGeometry x="10" width="110" height="30" as="geometry"/>
                </mxCell>
                <mxCell id="75" value="" style="endArrow=none;html=1;fillColor=#1ba1e2;strokeColor=#006EAF;" edge="1" parent="76">
                    <mxGeometry width="50" height="50" relative="1" as="geometry">
                        <mxPoint y="30" as="sourcePoint"/>
                        <mxPoint x="130" y="30" as="targetPoint"/>
                    </mxGeometry>
                </mxCell>
                <mxCell id="77" value="" style="endArrow=classic;html=1;fontSize=8;entryX=0;entryY=0.5;entryDx=0;entryDy=0;fillColor=#1ba1e2;strokeColor=#006EAF;startArrow=none;" edge="1" parent="1" source="78" target="11">
                    <mxGeometry width="50" height="50" relative="1" as="geometry">
                        <mxPoint x="50" y="770" as="sourcePoint"/>
                        <mxPoint x="100" y="720" as="targetPoint"/>
                    </mxGeometry>
                </mxCell>
                <mxCell id="79" value="" style="endArrow=classic;html=1;fontSize=8;entryX=0;entryY=0.5;entryDx=0;entryDy=0;fillColor=#60a917;strokeColor=#2D7600;" edge="1" parent="1" target="11">
                    <mxGeometry width="50" height="50" relative="1" as="geometry">
                        <mxPoint x="40" y="310" as="sourcePoint"/>
                        <mxPoint x="90" y="260" as="targetPoint"/>
                        <Array as="points">
                            <mxPoint x="290" y="540"/>
                        </Array>
                    </mxGeometry>
                </mxCell>
                <mxCell id="80" value="Product name ,Description,Price,image" style="text;html=1;strokeColor=none;fillColor=none;align=center;verticalAlign=middle;whiteSpace=wrap;rounded=0;fontSize=8;rotation=30;" vertex="1" parent="1">
                    <mxGeometry x="59.00000000000001" y="370" width="90" height="30" as="geometry"/>
                </mxCell>
                <mxCell id="82" value="" style="endArrow=classic;html=1;fontSize=8;fillColor=#1ba1e2;strokeColor=#006EAF;" edge="1" parent="1">
                    <mxGeometry width="50" height="50" relative="1" as="geometry">
                        <mxPoint x="60" y="790" as="sourcePoint"/>
                        <mxPoint x="460" y="820" as="targetPoint"/>
                    </mxGeometry>
                </mxCell>
                <mxCell id="83" value="&lt;span style=&quot;color: rgb(240, 240, 240); font-family: Helvetica; font-size: 12px; font-style: normal; font-variant-ligatures: normal; font-variant-caps: normal; font-weight: 400; letter-spacing: normal; orphans: 2; text-align: center; text-indent: 0px; text-transform: none; widows: 2; word-spacing: 0px; -webkit-text-stroke-width: 0px; background-color: rgb(24, 20, 29); text-decoration-thickness: initial; text-decoration-style: initial; text-decoration-color: initial; float: none; display: inline !important;&quot;&gt;OrderID,Total amount,Item Purchased&lt;/span&gt;" style="text;whiteSpace=wrap;html=1;fontSize=8;" vertex="1" parent="1">
                    <mxGeometry x="130" y="790" width="150" height="40" as="geometry"/>
                </mxCell>
                <mxCell id="85" value="" style="endArrow=classic;html=1;fontSize=8;entryX=0.022;entryY=0.606;entryDx=0;entryDy=0;entryPerimeter=0;fillColor=#60a917;strokeColor=#2D7600;" edge="1" parent="1" target="6">
                    <mxGeometry width="50" height="50" relative="1" as="geometry">
                        <mxPoint x="40" y="300" as="sourcePoint"/>
                        <mxPoint x="90" y="250" as="targetPoint"/>
                    </mxGeometry>
                </mxCell>
                <mxCell id="86" value="Product atrributes" style="text;html=1;strokeColor=none;fillColor=none;align=center;verticalAlign=middle;whiteSpace=wrap;rounded=0;fontSize=8;" vertex="1" parent="1">
                    <mxGeometry x="110" y="205" width="60" height="30" as="geometry"/>
                </mxCell>
                <mxCell id="91" value="" style="endArrow=classic;html=1;fontSize=8;" edge="1" parent="1">
                    <mxGeometry width="50" height="50" relative="1" as="geometry">
                        <mxPoint x="50" y="50" as="sourcePoint"/>
                        <mxPoint x="451.388916015625" as="targetPoint"/>
                    </mxGeometry>
                </mxCell>
                <mxCell id="92" value="Product Feedback and ratings" style="text;html=1;align=center;verticalAlign=middle;resizable=0;points=[];autosize=1;strokeColor=none;fillColor=none;fontSize=8;rotation=-10;" vertex="1" parent="1">
                    <mxGeometry x="90" y="20" width="130" height="20" as="geometry"/>
                </mxCell>
                <mxCell id="93" style="edgeStyle=none;html=1;exitX=1;exitY=0.5;exitDx=0;exitDy=0;entryX=0.024;entryY=0.409;entryDx=0;entryDy=0;entryPerimeter=0;fontSize=8;" edge="1" parent="1" source="14" target="4">
                    <mxGeometry relative="1" as="geometry"/>
                </mxCell>
                <mxCell id="14" value="&lt;span style=&quot;color: rgb(220, 217, 212); font-family: Söhne, ui-sans-serif, system-ui, -apple-system, &amp;quot;Segoe UI&amp;quot;, Roboto, Ubuntu, Cantarell, &amp;quot;Noto Sans&amp;quot;, sans-serif, &amp;quot;Helvetica Neue&amp;quot;, Arial, &amp;quot;Apple Color Emoji&amp;quot;, &amp;quot;Segoe UI Emoji&amp;quot;, &amp;quot;Segoe UI Symbol&amp;quot;, &amp;quot;Noto Color Emoji&amp;quot;; font-size: 16px; font-weight: 600; text-align: left; background-color: rgb(25, 27, 28);&quot;&gt;Customer Support&lt;/span&gt;" style="rounded=0;whiteSpace=wrap;html=1;" vertex="1" parent="1">
                    <mxGeometry x="-93" y="235.00212765957448" width="150" height="24.574468085106382" as="geometry"/>
                </mxCell>
                <mxCell id="94" style="edgeStyle=none;html=1;exitX=1;exitY=0.5;exitDx=0;exitDy=0;fontSize=8;" edge="1" parent="1" source="37" target="2">
                    <mxGeometry relative="1" as="geometry"/>
                </mxCell>
                <mxCell id="95" value="Phone No,Email,Password" style="text;html=1;strokeColor=none;fillColor=none;align=center;verticalAlign=middle;whiteSpace=wrap;rounded=0;rotation=-5;" vertex="1" parent="1">
                    <mxGeometry x="149" y="80" width="90" height="30" as="geometry"/>
                </mxCell>
                <mxCell id="96" style="edgeStyle=none;html=1;exitX=1;exitY=0.5;exitDx=0;exitDy=0;fontSize=8;fillColor=#a20025;strokeColor=#6F0000;" edge="1" parent="1" source="13" target="3">
                    <mxGeometry relative="1" as="geometry"/>
                </mxCell>
                <mxCell id="104" value="&lt;span style=&quot;&quot;&gt;ProductAtributes(Size,color,wight),&lt;br&gt;name,discription,price,&lt;br&gt;image,aviability&lt;/span&gt;" style="text;html=1;strokeColor=none;fillColor=none;align=center;verticalAlign=middle;whiteSpace=wrap;rounded=0;fontSize=8;fontColor=#FFFFFF;" vertex="1" parent="1">
                    <mxGeometry x="75" y="150" width="130" height="30" as="geometry"/>
                </mxCell>
                <mxCell id="105" value="" style="endArrow=classic;html=1;fontSize=8;fontColor=#FFFFFF;fillColor=#60a917;strokeColor=#2D7600;" edge="1" parent="1">
                    <mxGeometry width="50" height="50" relative="1" as="geometry">
                        <mxPoint x="40" y="300" as="sourcePoint"/>
                        <mxPoint x="450" y="270" as="targetPoint"/>
                    </mxGeometry>
                </mxCell>
                <mxCell id="106" value="Information about the product that is being reviewed" style="text;html=1;strokeColor=none;fillColor=none;align=center;verticalAlign=middle;whiteSpace=wrap;rounded=0;fontSize=8;fontColor=#FFFFFF;" vertex="1" parent="1">
                    <mxGeometry x="129" y="270" width="110" height="30" as="geometry"/>
                </mxCell>
                <mxCell id="107" value="Replies of feedbacks" style="text;html=1;strokeColor=none;fillColor=none;align=center;verticalAlign=middle;whiteSpace=wrap;rounded=0;fontSize=8;fontColor=#FFFFFF;" vertex="1" parent="1">
                    <mxGeometry x="205" y="230" width="60" height="30" as="geometry"/>
                </mxCell>
                <mxCell id="108" value="" style="endArrow=classic;html=1;fontSize=8;fontColor=#FFFFFF;entryX=0;entryY=0.5;entryDx=0;entryDy=0;fillColor=#60a917;strokeColor=#2D7600;" edge="1" parent="1" target="7">
                    <mxGeometry width="50" height="50" relative="1" as="geometry">
                        <mxPoint x="40" y="300" as="sourcePoint"/>
                        <mxPoint x="90" y="250" as="targetPoint"/>
                    </mxGeometry>
                </mxCell>
                <mxCell id="109" value="&lt;span style=&quot;color: rgb(240, 240, 240); font-family: Helvetica; font-size: 8px; font-style: normal; font-variant-ligatures: normal; font-variant-caps: normal; font-weight: 400; letter-spacing: normal; orphans: 2; text-align: center; text-indent: 0px; text-transform: none; widows: 2; word-spacing: 0px; -webkit-text-stroke-width: 0px; background-color: rgb(42, 37, 47); text-decoration-thickness: initial; text-decoration-style: initial; text-decoration-color: initial; float: none; display: inline !important;&quot;&gt;Product name ,Description,Price,image&lt;/span&gt;" style="text;whiteSpace=wrap;html=1;fontSize=8;fontColor=#FFFFFF;rotation=10;" vertex="1" parent="1">
                    <mxGeometry x="210" y="310" width="130" height="30" as="geometry"/>
                </mxCell>
                <mxCell id="112" style="edgeStyle=none;html=1;exitX=1;exitY=0.5;exitDx=0;exitDy=0;fontSize=8;fontColor=#FFFFFF;fillColor=#a20025;strokeColor=#6F0000;" edge="1" parent="1" source="110" target="11">
                    <mxGeometry relative="1" as="geometry"/>
                </mxCell>
                <mxCell id="170" style="edgeStyle=none;html=1;exitX=1;exitY=0.5;exitDx=0;exitDy=0;fontSize=8;fontColor=#FFFFFF;" edge="1" parent="1" source="110">
                    <mxGeometry relative="1" as="geometry">
                        <mxPoint x="460" y="500" as="targetPoint"/>
                    </mxGeometry>
                </mxCell>
                <mxCell id="110" value="&lt;span style=&quot;color: rgb(220, 217, 212); font-family: Söhne, ui-sans-serif, system-ui, -apple-system, &amp;quot;Segoe UI&amp;quot;, Roboto, Ubuntu, Cantarell, &amp;quot;Noto Sans&amp;quot;, sans-serif, &amp;quot;Helvetica Neue&amp;quot;, Arial, &amp;quot;Apple Color Emoji&amp;quot;, &amp;quot;Segoe UI Emoji&amp;quot;, &amp;quot;Segoe UI Symbol&amp;quot;, &amp;quot;Noto Color Emoji&amp;quot;; font-size: 16px; font-weight: 600; text-align: left; background-color: rgb(25, 27, 28);&quot;&gt;Shipping Service&lt;/span&gt;" style="rounded=0;whiteSpace=wrap;html=1;" vertex="1" parent="1">
                    <mxGeometry x="-75" y="680" width="150" height="50" as="geometry"/>
                </mxCell>
                <mxCell id="115" value="&lt;span style=&quot;color: rgb(240, 240, 240); font-size: 12px;&quot;&gt;Delivery status,Product&amp;nbsp; location&lt;/span&gt;" style="text;html=1;strokeColor=none;fillColor=none;align=center;verticalAlign=middle;whiteSpace=wrap;rounded=0;fontSize=8;fontColor=#FFFFFF;" vertex="1" parent="1">
                    <mxGeometry x="82.01" y="680" width="107.99" height="10" as="geometry"/>
                </mxCell>
                <mxCell id="116" value="" style="group" vertex="1" connectable="0" parent="1">
                    <mxGeometry x="900" y="340" width="140" height="30" as="geometry"/>
                </mxCell>
                <mxCell id="117" value="" style="endArrow=none;html=1;" edge="1" parent="116">
                    <mxGeometry width="50" height="50" relative="1" as="geometry">
                        <mxPoint as="sourcePoint"/>
                        <mxPoint x="130" as="targetPoint"/>
                    </mxGeometry>
                </mxCell>
                <mxCell id="118" value="&lt;span style=&quot;&quot;&gt;Order Database&lt;/span&gt;" style="text;html=1;align=center;verticalAlign=middle;resizable=0;points=[];autosize=1;strokeColor=none;fillColor=none;" vertex="1" parent="116">
                    <mxGeometry x="10" width="110" height="30" as="geometry"/>
                </mxCell>
                <mxCell id="119" value="" style="endArrow=none;html=1;" edge="1" parent="116">
                    <mxGeometry width="50" height="50" relative="1" as="geometry">
                        <mxPoint y="30" as="sourcePoint"/>
                        <mxPoint x="130" y="30" as="targetPoint"/>
                    </mxGeometry>
                </mxCell>
                <mxCell id="120" style="edgeStyle=none;html=1;exitX=0.982;exitY=0.415;exitDx=0;exitDy=0;fontSize=8;fontColor=#FFFFFF;exitPerimeter=0;" edge="1" parent="1" source="11">
                    <mxGeometry relative="1" as="geometry">
                        <mxPoint x="900" y="370" as="targetPoint"/>
                    </mxGeometry>
                </mxCell>
                <mxCell id="121" value="&lt;span style=&quot;color: rgb(240, 240, 240); font-family: Helvetica; font-size: 12px; font-style: normal; font-variant-ligatures: normal; font-variant-caps: normal; font-weight: 400; letter-spacing: normal; orphans: 2; text-align: center; text-indent: 0px; text-transform: none; widows: 2; word-spacing: 0px; -webkit-text-stroke-width: 0px; background-color: rgb(24, 20, 29); text-decoration-thickness: initial; text-decoration-style: initial; text-decoration-color: initial; float: none; display: inline !important;&quot;&gt;Order details,Item purchased,payment Information,shipping details&lt;/span&gt;" style="text;whiteSpace=wrap;html=1;fontSize=8;fontColor=#FFFFFF;rotation=-45;" vertex="1" parent="1">
                    <mxGeometry x="600" y="510" width="210" height="70" as="geometry"/>
                </mxCell>
                <mxCell id="123" value="" style="group" vertex="1" connectable="0" parent="1">
                    <mxGeometry x="900" y="280" width="140" height="30" as="geometry"/>
                </mxCell>
                <mxCell id="124" value="" style="endArrow=none;html=1;" edge="1" parent="123">
                    <mxGeometry width="50" height="50" relative="1" as="geometry">
                        <mxPoint as="sourcePoint"/>
                        <mxPoint x="130" as="targetPoint"/>
                    </mxGeometry>
                </mxCell>
                <mxCell id="125" value="&lt;span style=&quot;&quot;&gt;Cart database&lt;/span&gt;" style="text;html=1;align=center;verticalAlign=middle;resizable=0;points=[];autosize=1;strokeColor=none;fillColor=none;" vertex="1" parent="123">
                    <mxGeometry x="15" width="100" height="30" as="geometry"/>
                </mxCell>
                <mxCell id="126" value="" style="endArrow=none;html=1;" edge="1" parent="123">
                    <mxGeometry width="50" height="50" relative="1" as="geometry">
                        <mxPoint y="30" as="sourcePoint"/>
                        <mxPoint x="130" y="30" as="targetPoint"/>
                    </mxGeometry>
                </mxCell>
                <mxCell id="127" style="edgeStyle=none;html=1;exitX=1;exitY=0.5;exitDx=0;exitDy=0;entryX=0.02;entryY=0.453;entryDx=0;entryDy=0;entryPerimeter=0;fontSize=8;fontColor=#FFFFFF;startArrow=none;" edge="1" parent="1" source="128" target="125">
                    <mxGeometry relative="1" as="geometry"/>
                </mxCell>
                <mxCell id="129" style="edgeStyle=none;html=1;exitX=1;exitY=0.5;exitDx=0;exitDy=0;fontSize=8;fontColor=#FFFFFF;" edge="1" parent="1" source="12">
                    <mxGeometry relative="1" as="geometry">
                        <mxPoint x="900" y="370" as="targetPoint"/>
                    </mxGeometry>
                </mxCell>
                <mxCell id="130" value="Logs of payment" style="text;html=1;align=center;verticalAlign=middle;resizable=0;points=[];autosize=1;strokeColor=none;fillColor=none;fontSize=8;fontColor=#FFFFFF;rotation=-45;" vertex="1" parent="1">
                    <mxGeometry x="590" y="670" width="80" height="20" as="geometry"/>
                </mxCell>
                <mxCell id="137" value="" style="group;" vertex="1" connectable="0" parent="1">
                    <mxGeometry x="905" y="60" width="130" height="30" as="geometry"/>
                </mxCell>
                <mxCell id="138" value="" style="endArrow=none;html=1;" edge="1" parent="137">
                    <mxGeometry width="50" height="50" relative="1" as="geometry">
                        <mxPoint as="sourcePoint"/>
                        <mxPoint x="130" as="targetPoint"/>
                    </mxGeometry>
                </mxCell>
                <mxCell id="139" value="Product Database" style="text;html=1;align=center;verticalAlign=middle;resizable=0;points=[];autosize=1;strokeColor=none;fillColor=none;" vertex="1" parent="137">
                    <mxGeometry x="5" width="120" height="30" as="geometry"/>
                </mxCell>
                <mxCell id="140" value="" style="endArrow=none;html=1;" edge="1" parent="137">
                    <mxGeometry width="50" height="50" relative="1" as="geometry">
                        <mxPoint y="30" as="sourcePoint"/>
                        <mxPoint x="130" y="30" as="targetPoint"/>
                    </mxGeometry>
                </mxCell>
                <mxCell id="141" style="edgeStyle=none;html=1;exitX=1;exitY=0.5;exitDx=0;exitDy=0;fontSize=8;fontColor=#FFFFFF;" edge="1" parent="1" source="3" target="139">
                    <mxGeometry relative="1" as="geometry"/>
                </mxCell>
                <mxCell id="142" value="&lt;span style=&quot;color: rgb(255, 255, 255); font-family: Helvetica; font-size: 8px; font-style: normal; font-variant-ligatures: normal; font-variant-caps: normal; font-weight: 400; letter-spacing: normal; orphans: 2; text-align: center; text-indent: 0px; text-transform: none; widows: 2; word-spacing: 0px; -webkit-text-stroke-width: 0px; background-color: rgb(42, 37, 47); text-decoration-thickness: initial; text-decoration-style: initial; text-decoration-color: initial; float: none; display: inline !important;&quot;&gt;ProductAtributes(Size,color,wight),&lt;/span&gt;&lt;br style=&quot;border-color: rgb(0, 0, 0); color: rgb(255, 255, 255); font-family: Helvetica; font-size: 8px; font-style: normal; font-variant-ligatures: normal; font-variant-caps: normal; font-weight: 400; letter-spacing: normal; orphans: 2; text-align: center; text-indent: 0px; text-transform: none; widows: 2; word-spacing: 0px; -webkit-text-stroke-width: 0px; background-color: rgb(42, 37, 47); text-decoration-thickness: initial; text-decoration-style: initial; text-decoration-color: initial;&quot;&gt;&lt;span style=&quot;color: rgb(255, 255, 255); font-family: Helvetica; font-size: 8px; font-style: normal; font-variant-ligatures: normal; font-variant-caps: normal; font-weight: 400; letter-spacing: normal; orphans: 2; text-align: center; text-indent: 0px; text-transform: none; widows: 2; word-spacing: 0px; -webkit-text-stroke-width: 0px; background-color: rgb(42, 37, 47); text-decoration-thickness: initial; text-decoration-style: initial; text-decoration-color: initial; float: none; display: inline !important;&quot;&gt;name,discription,price,&lt;/span&gt;&lt;br style=&quot;border-color: rgb(0, 0, 0); color: rgb(255, 255, 255); font-family: Helvetica; font-size: 8px; font-style: normal; font-variant-ligatures: normal; font-variant-caps: normal; font-weight: 400; letter-spacing: normal; orphans: 2; text-align: center; text-indent: 0px; text-transform: none; widows: 2; word-spacing: 0px; -webkit-text-stroke-width: 0px; background-color: rgb(42, 37, 47); text-decoration-thickness: initial; text-decoration-style: initial; text-decoration-color: initial;&quot;&gt;&lt;span style=&quot;color: rgb(255, 255, 255); font-family: Helvetica; font-size: 8px; font-style: normal; font-variant-ligatures: normal; font-variant-caps: normal; font-weight: 400; letter-spacing: normal; orphans: 2; text-align: center; text-indent: 0px; text-transform: none; widows: 2; word-spacing: 0px; -webkit-text-stroke-width: 0px; background-color: rgb(42, 37, 47); text-decoration-thickness: initial; text-decoration-style: initial; text-decoration-color: initial; float: none; display: inline !important;&quot;&gt;image,aviability&lt;/span&gt;" style="text;whiteSpace=wrap;html=1;fontSize=8;fontColor=#FFFFFF;rotation=-15;" vertex="1" parent="1">
                    <mxGeometry x="660" y="90" width="160" height="50" as="geometry"/>
                </mxCell>
                <mxCell id="143" value="" style="group" vertex="1" connectable="0" parent="1">
                    <mxGeometry x="910" y="150" width="170" height="30" as="geometry"/>
                </mxCell>
                <mxCell id="144" value="" style="group" vertex="1" connectable="0" parent="143">
                    <mxGeometry width="147.33333333333334" height="30" as="geometry"/>
                </mxCell>
                <mxCell id="145" value="" style="endArrow=none;html=1;" edge="1" parent="144">
                    <mxGeometry width="50" height="50" relative="1" as="geometry">
                        <mxPoint as="sourcePoint"/>
                        <mxPoint x="147.33333333333334" as="targetPoint"/>
                    </mxGeometry>
                </mxCell>
                <mxCell id="146" value="&lt;span style=&quot;&quot;&gt;Feedback Database&lt;/span&gt;" style="text;html=1;align=center;verticalAlign=middle;resizable=0;points=[];autosize=1;strokeColor=none;fillColor=none;" vertex="1" parent="144">
                    <mxGeometry x="10.003333333333336" width="130" height="30" as="geometry"/>
                </mxCell>
                <mxCell id="147" value="" style="endArrow=none;html=1;" edge="1" parent="144">
                    <mxGeometry width="50" height="50" relative="1" as="geometry">
                        <mxPoint y="30" as="sourcePoint"/>
                        <mxPoint x="147.33333333333334" y="30" as="targetPoint"/>
                    </mxGeometry>
                </mxCell>
                <mxCell id="148" style="edgeStyle=none;html=1;exitX=1;exitY=0.5;exitDx=0;exitDy=0;entryX=0;entryY=0.333;entryDx=0;entryDy=0;entryPerimeter=0;fontSize=8;fontColor=#FFFFFF;" edge="1" parent="1" source="4" target="146">
                    <mxGeometry relative="1" as="geometry"/>
                </mxCell>
                <mxCell id="149" value="users review and ratings" style="text;html=1;align=center;verticalAlign=middle;resizable=0;points=[];autosize=1;strokeColor=none;fillColor=none;fontSize=8;fontColor=#FFFFFF;rotation=-15;" vertex="1" parent="1">
                    <mxGeometry x="595" y="210" width="110" height="20" as="geometry"/>
                </mxCell>
                <mxCell id="150" value="" style="group" vertex="1" connectable="0" parent="1">
                    <mxGeometry x="900" y="10" width="140" height="30" as="geometry"/>
                </mxCell>
                <mxCell id="151" value="" style="endArrow=none;html=1;" edge="1" parent="150">
                    <mxGeometry width="50" height="50" relative="1" as="geometry">
                        <mxPoint as="sourcePoint"/>
                        <mxPoint x="130" as="targetPoint"/>
                    </mxGeometry>
                </mxCell>
                <mxCell id="152" value="&lt;span style=&quot;&quot;&gt;User&amp;nbsp; account Database&lt;/span&gt;" style="text;html=1;align=center;verticalAlign=middle;resizable=0;points=[];autosize=1;strokeColor=none;fillColor=none;" vertex="1" parent="150">
                    <mxGeometry x="-10" width="150" height="30" as="geometry"/>
                </mxCell>
                <mxCell id="153" value="" style="endArrow=none;html=1;" edge="1" parent="150">
                    <mxGeometry width="50" height="50" relative="1" as="geometry">
                        <mxPoint y="30" as="sourcePoint"/>
                        <mxPoint x="130" y="30" as="targetPoint"/>
                    </mxGeometry>
                </mxCell>
                <mxCell id="156" style="edgeStyle=none;html=1;exitX=1;exitY=0.5;exitDx=0;exitDy=0;fontSize=8;fontColor=#FFFFFF;" edge="1" parent="1" source="2">
                    <mxGeometry relative="1" as="geometry">
                        <mxPoint x="900" y="30" as="targetPoint"/>
                    </mxGeometry>
                </mxCell>
                <mxCell id="159" value="&lt;span style=&quot;color: rgb(240, 240, 240); font-family: Helvetica; font-size: 12px; font-style: normal; font-variant-ligatures: normal; font-variant-caps: normal; font-weight: 400; letter-spacing: normal; orphans: 2; text-align: center; text-indent: 0px; text-transform: none; widows: 2; word-spacing: 0px; -webkit-text-stroke-width: 0px; background-color: rgb(42, 37, 47); text-decoration-thickness: initial; text-decoration-style: initial; text-decoration-color: initial; float: none; display: inline !important;&quot;&gt;Account Information&lt;/span&gt;" style="text;whiteSpace=wrap;html=1;fontSize=8;fontColor=#FFFFFF;" vertex="1" parent="1">
                    <mxGeometry x="600" y="30" width="140" height="40" as="geometry"/>
                </mxCell>
                <mxCell id="161" value="Confidence scores,product association&amp;nbsp;&amp;nbsp;" style="text;html=1;strokeColor=none;fillColor=none;align=center;verticalAlign=middle;whiteSpace=wrap;rounded=0;fontSize=8;fontColor=#FFFFFF;rotation=15;" vertex="1" parent="1">
                    <mxGeometry x="705" width="70" height="30" as="geometry"/>
                </mxCell>
                <mxCell id="162" value="&lt;span style=&quot;color: rgb(220, 217, 212); font-family: Söhne, ui-sans-serif, system-ui, -apple-system, &amp;quot;Segoe UI&amp;quot;, Roboto, Ubuntu, Cantarell, &amp;quot;Noto Sans&amp;quot;, sans-serif, &amp;quot;Helvetica Neue&amp;quot;, Arial, &amp;quot;Apple Color Emoji&amp;quot;, &amp;quot;Segoe UI Emoji&amp;quot;, &amp;quot;Segoe UI Symbol&amp;quot;, &amp;quot;Noto Color Emoji&amp;quot;; font-size: 16px; font-weight: 600; text-align: left; background-color: rgb(25, 27, 28);&quot;&gt;Shipping Service&lt;/span&gt;" style="rounded=0;whiteSpace=wrap;html=1;" vertex="1" parent="1">
                    <mxGeometry x="905" y="205" width="150" height="50" as="geometry"/>
                </mxCell>
                <mxCell id="163" value="Payment Gateway" style="rounded=0;whiteSpace=wrap;html=1;" vertex="1" parent="1">
                    <mxGeometry x="900" y="410" width="150" height="50" as="geometry"/>
                </mxCell>
                <mxCell id="164" style="edgeStyle=none;html=1;exitX=1;exitY=0.5;exitDx=0;exitDy=0;entryX=0;entryY=1;entryDx=0;entryDy=0;fontSize=8;fontColor=#FFFFFF;" edge="1" parent="1" source="12" target="163">
                    <mxGeometry relative="1" as="geometry"/>
                </mxCell>
                <mxCell id="167" value="Payment Info" style="text;html=1;strokeColor=none;fillColor=none;align=center;verticalAlign=middle;whiteSpace=wrap;rounded=0;fontSize=8;fontColor=#FFFFFF;rotation=-45;" vertex="1" parent="1">
                    <mxGeometry x="705" y="640" width="60" height="30" as="geometry"/>
                </mxCell>
                <mxCell id="169" value="" style="endArrow=classic;html=1;fontSize=8;fontColor=#FFFFFF;fillColor=#60a917;strokeColor=#2D7600;" edge="1" parent="1" target="8">
                    <mxGeometry width="50" height="50" relative="1" as="geometry">
                        <mxPoint x="40" y="300" as="sourcePoint"/>
                        <mxPoint x="90" y="250" as="targetPoint"/>
                    </mxGeometry>
                </mxCell>
                <mxCell id="171" value="" style="endArrow=classic;html=1;fontSize=8;fontColor=#FFFFFF;fillColor=#1ba1e2;strokeColor=#006EAF;" edge="1" parent="1">
                    <mxGeometry width="50" height="50" relative="1" as="geometry">
                        <mxPoint x="60" y="780" as="sourcePoint"/>
                        <mxPoint x="470" y="510" as="targetPoint"/>
                    </mxGeometry>
                </mxCell>
                <mxCell id="172" value="" style="endArrow=none;html=1;fontSize=8;entryX=0;entryY=0.5;entryDx=0;entryDy=0;fillColor=#1ba1e2;strokeColor=#006EAF;" edge="1" parent="1" target="78">
                    <mxGeometry width="50" height="50" relative="1" as="geometry">
                        <mxPoint x="50" y="770" as="sourcePoint"/>
                        <mxPoint x="458.5" y="690" as="targetPoint"/>
                    </mxGeometry>
                </mxCell>
                <mxCell id="78" value="&lt;span style=&quot;color: rgb(240, 240, 240); font-family: Helvetica; font-size: 12px; font-style: normal; font-variant-ligatures: normal; font-variant-caps: normal; font-weight: 400; letter-spacing: normal; orphans: 2; text-align: center; text-indent: 0px; text-transform: none; widows: 2; word-spacing: 0px; -webkit-text-stroke-width: 0px; background-color: rgb(24, 20, 29); text-decoration-thickness: initial; text-decoration-style: initial; text-decoration-color: initial; float: none; display: inline !important;&quot;&gt;Order details,Item purchased,payment Information,shipping details&lt;/span&gt;" style="text;whiteSpace=wrap;html=1;fontSize=8;" vertex="1" parent="1">
                    <mxGeometry x="139" y="720" width="110" height="60" as="geometry"/>
                </mxCell>
                <mxCell id="173" style="edgeStyle=none;html=1;exitX=1;exitY=0.5;exitDx=0;exitDy=0;entryX=0;entryY=0.5;entryDx=0;entryDy=0;fontSize=8;fontColor=#FFFFFF;" edge="1" parent="1" source="9" target="162">
                    <mxGeometry relative="1" as="geometry"/>
                </mxCell>
                <mxCell id="174" value="" style="edgeStyle=none;html=1;exitX=1;exitY=0.5;exitDx=0;exitDy=0;entryX=0.02;entryY=0.453;entryDx=0;entryDy=0;entryPerimeter=0;fontSize=8;fontColor=#FFFFFF;endArrow=none;" edge="1" parent="1" source="9" target="128">
                    <mxGeometry relative="1" as="geometry">
                        <mxPoint x="548.5" y="590" as="sourcePoint"/>
                        <mxPoint x="916.9999999999995" y="293.59000000000015" as="targetPoint"/>
                    </mxGeometry>
                </mxCell>
                <mxCell id="128" value="&lt;span style=&quot;color: rgb(240, 240, 240); font-family: Helvetica; font-size: 12px; font-style: normal; font-variant-ligatures: normal; font-variant-caps: normal; font-weight: 400; letter-spacing: normal; orphans: 2; text-align: center; text-indent: 0px; text-transform: none; widows: 2; word-spacing: 0px; -webkit-text-stroke-width: 0px; background-color: rgb(42, 37, 47); text-decoration-thickness: initial; text-decoration-style: initial; text-decoration-color: initial; float: none; display: inline !important;&quot;&gt;Contents of users cart&lt;/span&gt;" style="text;html=1;strokeColor=none;fillColor=none;align=center;verticalAlign=middle;whiteSpace=wrap;rounded=0;fontSize=8;fontColor=#FFFFFF;rotation=-41;" vertex="1" parent="1">
                    <mxGeometry x="750" y="370" width="100" height="30" as="geometry"/>
                </mxCell>
                <mxCell id="175" value="Payment details&amp;nbsp;" style="text;html=1;strokeColor=none;fillColor=none;align=center;verticalAlign=middle;whiteSpace=wrap;rounded=0;fontSize=8;fontColor=#FFFFFF;rotation=-45;" vertex="1" parent="1">
                    <mxGeometry x="760" y="300" width="60" height="30" as="geometry"/>
                </mxCell>
            </root>
        </mxGraphModel>
    </diagram>
</mxfile>